<svg width="152" height="150" viewBox="0 0 152 150" fill="none" xmlns="http://www.w3.org/2000/svg">
<rect y="112" width="150" height="43" rx="7" transform="rotate(-30 0 112)" fill="black"/>
<rect y="75" width="150" height="43" rx="7" transform="rotate(-30 0 75)" fill="black"/>
<g style="mix-blend-mode:screen">
<rect y="94" width="150" height="43" rx="7" transform="rotate(-30 0 94)" fill="white"/>
</g>
<path d="M27.4893 104.957L24.8616 106.474L28.2449 112.334L24.9466 114.238L15.7044 98.2301L21.6524 94.7961C23.5435 93.7043 25.2454 93.2836 26.7582 93.5341C28.271 93.7845 29.4717 94.6794 30.3604 96.2186C30.9909 97.3107 31.2796 98.3608 31.2263 99.3688C31.1762 100.365 30.7959 101.357 30.0853 102.344L37.3255 106.886L37.4143 107.04L33.8741 109.084L27.4893 104.957ZM23.3192 103.802L25.9798 102.266C26.8081 101.788 27.3288 101.209 27.542 100.528C27.751 99.8409 27.6418 99.127 27.2144 98.3868C26.7785 97.6318 26.2195 97.1629 25.5374 96.9802C24.8626 96.7932 24.0818 96.9557 23.1949 97.4677L20.5452 98.9975L23.3192 103.802ZM50.5823 90.1873L44.2495 93.8435L46.7251 98.1314L54.1573 93.8404L55.6871 96.49L44.9565 102.685L35.7143 86.6774L46.423 80.4948L47.9654 83.1665L40.5552 87.4448L42.7578 91.2599L49.0906 87.6036L50.5823 90.1873ZM72.7394 79.5352C73.6092 81.3296 73.7544 83.0537 73.175 84.7076C72.6028 86.3573 71.3786 87.7238 69.5022 88.8071C67.4499 89.992 65.4359 90.2361 63.4603 89.5395C61.4877 88.8312 59.8053 87.2714 58.4131 84.8599L57.8481 83.8814C56.9595 82.3422 56.4478 80.8297 56.3131 79.3438C56.1784 77.8579 56.4333 76.5135 57.0777 75.3108C57.7253 74.0964 58.7161 73.1042 60.0501 72.334C61.8971 71.2676 63.6707 70.9033 65.3708 71.2411C67.0708 71.5789 68.5251 72.5912 69.7335 74.2781L66.4352 76.1824C65.7579 75.1955 65.0367 74.615 64.2717 74.441C63.5098 74.2554 62.6231 74.4546 61.6116 75.0386C60.5121 75.6734 59.9161 76.5453 59.8234 77.6543C59.7338 78.7517 60.1599 80.1329 61.1016 81.7978L61.7998 83.0072C62.7985 84.737 63.7887 85.8512 64.7704 86.3496C65.7594 86.8439 66.8182 86.7651 67.947 86.1135C68.9658 85.5252 69.5911 84.8564 69.823 84.1068C70.0579 83.3457 69.9306 82.4566 69.441 81.4395L72.7394 79.5352ZM90.7462 71.8509L84.9631 75.1897L85.768 79.1229L82.2607 81.1478L78.9776 61.6994L82.034 59.9347L97.2682 72.4832L93.761 74.5081L90.7462 71.8509ZM84.3112 72.0039L88.3132 69.6934L82.8417 64.863L84.3112 72.0039ZM110.269 59.3776C109.909 58.7545 109.414 58.4051 108.784 58.3291C108.149 58.2459 107.155 58.3511 105.8 58.6448C104.44 58.9311 103.324 59.0872 102.449 59.1132C100.064 59.1805 98.3917 58.3822 97.431 56.7184C96.9317 55.8535 96.7292 54.9442 96.8237 53.9906C96.9212 53.0254 97.3144 52.0899 98.0032 51.184C98.6994 50.2739 99.6155 49.4909 100.752 48.835C101.895 48.1748 103.034 47.7955 104.17 47.697C105.301 47.5912 106.33 47.774 107.257 48.2454C108.191 48.7126 108.936 49.4263 109.49 50.3865L106.192 52.2908C105.769 51.5578 105.21 51.1231 104.515 50.9865C103.816 50.8427 103.049 51.012 102.214 51.4944C101.407 51.9599 100.88 52.4939 100.632 53.0966C100.38 53.6919 100.414 54.268 100.736 54.8251C101.036 55.3455 101.548 55.6314 102.272 55.6828C103.003 55.7299 103.966 55.6133 105.163 55.3329C107.365 54.814 109.136 54.7247 110.476 55.0652C111.816 55.4056 112.846 56.1989 113.565 57.4449C114.365 58.8302 114.469 60.2213 113.878 61.618C113.283 63.0074 112.098 64.2142 110.325 65.2383C109.093 65.9492 107.843 66.3731 106.573 66.51C105.299 66.6395 104.168 66.4666 103.181 65.9913C102.2 65.5117 101.411 64.7551 100.815 63.7217L104.124 61.811C105.144 63.5775 106.709 63.8513 108.82 62.6326C109.605 62.1798 110.126 61.6688 110.383 61.0997C110.637 60.5233 110.599 59.9493 110.269 59.3776ZM128.225 36.8286L123.321 39.6596L131.021 52.9959L127.723 54.9002L120.023 41.5639L115.186 44.3569L113.643 41.6852L126.683 34.1569L128.225 36.8286Z" fill="black"/>
</svg>
